<!--
  ~ Copyright (C) 2023 EcoToken Systems
  ~
  ~ This program is free software: you can redistribute it and/or modify
  ~ it under the terms of the GNU Affero General Public License as
  ~ published by the Free Software Foundation, either version 3 of the
  ~ License, or (at your option) any later version.
  ~
  ~ This program is distributed in the hope that it will be useful,
  ~ but WITHOUT ANY WARRANTY; without even the implied warranty of
  ~ MERCHANTABILITY or FITNESS FOR A PARTICULAR PURPOSE. See the
  ~ GNU Affero General Public License for more details.
  ~
  ~ You should have received a copy of the GNU Affero General Public License
  ~ along with this program. If not, see <http://www.gnu.org/licenses/>.
-->

<svg width="38" height="32" viewBox="0 0 38 32" fill="none" xmlns="http://www.w3.org/2000/svg">
<path d="M27.1522 10.2086H22.9987V6.00409C22.9987 5.78714 22.9129 5.57908 22.7602 5.42568C22.6075 5.27228 22.4003 5.18609 22.1843 5.18609H21.1745V0.817996C21.1745 0.60105 21.0887 0.392989 20.9359 0.239585C20.7832 0.0861815 20.576 0 20.3601 0L0.814402 0C0.598409 0 0.391263 0.0861815 0.238533 0.239585C0.0858028 0.392989 0 0.60105 0 0.817996L0 5.84049C0 5.94791 0.0210651 6.05428 0.0619927 6.15352C0.10292 6.25277 0.162909 6.34294 0.238533 6.4189C0.314157 6.49486 0.403936 6.55511 0.502744 6.59622C0.601552 6.63733 0.707453 6.65849 0.814402 6.65849H1.88941V11.0266C1.88941 11.2435 1.97522 11.4516 2.12795 11.605C2.28068 11.7584 2.48782 11.8446 2.70381 11.8446H3.51822V15.2474H1.07501C0.859018 15.2474 0.651872 15.3336 0.499142 15.487C0.346412 15.6404 0.260609 15.8485 0.260609 16.0654V31.0838C0.260609 31.3008 0.346412 31.5089 0.499142 31.6623C0.651872 31.8157 0.859018 31.9018 1.07501 31.9018H20.6207C20.8367 31.9018 21.0438 31.8157 21.1965 31.6623C21.3493 31.5089 21.4351 31.3008 21.4351 31.0838V30.2495C22.8577 31.1745 24.4764 31.7518 26.1613 31.9351C27.8462 32.1185 29.5504 31.9028 31.1373 31.3053C32.7242 30.7079 34.1497 29.7453 35.2994 28.4947C36.4492 27.2441 37.2912 25.7404 37.758 24.104C38.2248 22.4677 38.3034 20.7442 37.9875 19.0718C37.6716 17.3994 36.97 15.8247 35.9389 14.4738C34.9078 13.1228 33.5759 12.0334 32.05 11.2927C30.5241 10.552 28.8467 10.1807 27.1522 10.2086ZM1.6288 1.63599H19.5457V5.02249H1.6288V1.63599ZM3.51822 6.82209H21.4351V10.2086H3.51822V6.82209ZM5.14702 11.8446H21.4351C20.0587 12.7043 18.8902 13.8611 18.0146 15.2311H5.14702V11.8446ZM16.5487 25.2924H1.88941V21.9059H16.288C16.3703 23.0706 16.6398 24.2143 17.0862 25.2924H16.5487ZM1.88941 16.8671H17.1513C16.6994 17.9443 16.4244 19.088 16.3369 20.2536H1.88941V16.8671ZM19.8063 30.3149H1.88941V26.9284H17.9983C18.4886 27.7027 19.0741 28.4118 19.7411 29.0389L19.8063 30.3149ZM27.2173 30.3149C25.604 30.3165 24.0187 29.8914 22.6209 29.0822C21.2231 28.273 20.0621 27.1084 19.2547 25.7054C18.4474 24.3025 18.0221 22.7107 18.0217 21.0902C18.0213 19.4698 18.4458 17.8778 19.2525 16.4744C19.2847 16.4284 19.312 16.379 19.3339 16.3272C20.1619 14.9465 21.3355 13.8077 22.7379 13.0243C24.1404 12.2408 25.7227 11.84 27.3273 11.8618C28.9319 11.8836 30.5028 12.3272 31.8836 13.1484C33.2645 13.9696 34.407 15.1398 35.1976 16.5425C35.9881 17.9452 36.399 19.5314 36.3894 21.1432C36.3798 22.755 35.95 24.3361 35.1428 25.7292C34.3356 27.1223 33.1792 28.2786 31.7887 29.0832C30.3982 29.8878 28.8221 30.3124 27.2173 30.3149Z" fill="white"/>
</svg>
