<!--
  ~ Copyright (C) 2023 EcoToken Systems
  ~
  ~ This program is free software: you can redistribute it and/or modify
  ~ it under the terms of the GNU Affero General Public License as
  ~ published by the Free Software Foundation, either version 3 of the
  ~ License, or (at your option) any later version.
  ~
  ~ This program is distributed in the hope that it will be useful,
  ~ but WITHOUT ANY WARRANTY; without even the implied warranty of
  ~ MERCHANTABILITY or FITNESS FOR A PARTICULAR PURPOSE. See the
  ~ GNU Affero General Public License for more details.
  ~
  ~ You should have received a copy of the GNU Affero General Public License
  ~ along with this program. If not, see <http://www.gnu.org/licenses/>.
-->

<svg width="24" height="24" viewBox="0 0 24 24" fill="none" xmlns="http://www.w3.org/2000/svg">
<path d="M12 16.2583L16.2583 12L12 7.74168L10.775 8.96668L12.9333 11.125H7.62498V12.875H12.9333L10.775 15.0333L12 16.2583ZM12 23.6667C10.4055 23.6667 8.89859 23.3604 7.47915 22.7479C6.0597 22.1354 4.82012 21.2993 3.7604 20.2396C2.70067 19.1799 1.86456 17.9403 1.25206 16.5208C0.639563 15.1014 0.333313 13.5945 0.333313 12C0.333313 10.3861 0.639563 8.86945 1.25206 7.45001C1.86456 6.03057 2.70067 4.79584 3.7604 3.74584C4.82012 2.69584 6.0597 1.86459 7.47915 1.25209C8.89859 0.639593 10.4055 0.333344 12 0.333344C13.6139 0.333344 15.1305 0.639593 16.55 1.25209C17.9694 1.86459 19.2041 2.69584 20.2541 3.74584C21.3041 4.79584 22.1354 6.03057 22.7479 7.45001C23.3604 8.86945 23.6666 10.3861 23.6666 12C23.6666 13.5945 23.3604 15.1014 22.7479 16.5208C22.1354 17.9403 21.3041 19.1799 20.2541 20.2396C19.2041 21.2993 17.9694 22.1354 16.55 22.7479C15.1305 23.3604 13.6139 23.6667 12 23.6667ZM12 21.9167C14.7611 21.9167 17.1041 20.9493 19.0291 19.0146C20.9541 17.0799 21.9166 14.7417 21.9166 12C21.9166 9.2389 20.9541 6.89584 19.0291 4.97084C17.1041 3.04584 14.7611 2.08334 12 2.08334C9.25831 2.08334 6.92012 3.04584 4.9854 4.97084C3.05067 6.89584 2.08331 9.2389 2.08331 12C2.08331 14.7417 3.05067 17.0799 4.9854 19.0146C6.92012 20.9493 9.25831 21.9167 12 21.9167Z" fill="white"/>
</svg>
